<?xml version="1.0" standalone="no"?>
<!DOCTYPE svg PUBLIC "-//W3C//DTD SVG 20010904//EN"
 "http://www.w3.org/TR/2001/REC-SVG-20010904/DTD/svg10.dtd">
<svg version="1.0" xmlns="http://www.w3.org/2000/svg"
 width="16.000000pt" height="16.000000pt" viewBox="0 0 16.000000 16.000000"
 preserveAspectRatio="xMidYMid meet">
<metadata>
Created by potrace 1.11, written by Peter Selinger 2001-2013
</metadata>
<g transform="translate(0.000000,16.000000) scale(0.002286,-0.002286)"
fill="#000000" stroke="none">
<path d="M0 5658 l0 -1343 964 -594 963 -595 -62 -100 c-157 -254 -1858 -3012
-1862 -3018 -2 -5 600 -8 1339 -7 l1343 0 593 962 c327 529 862 1396 1189
1927 328 531 1026 1663 1551 2515 526 853 962 1560 970 1573 l14 22 -1343 -1
-1344 0 -590 -960 c-417 -678 -594 -958 -605 -955 -8 2 -712 434 -1564 960
-852 526 -1550 956 -1552 956 -2 0 -4 -604 -4 -1342z"/>
</g>
</svg>
