<?xml version="1.0" standalone="no"?>
<!DOCTYPE svg PUBLIC "-//W3C//DTD SVG 20010904//EN"
 "http://www.w3.org/TR/2001/REC-SVG-20010904/DTD/svg10.dtd">
<svg version="1.0" xmlns="http://www.w3.org/2000/svg"
 width="16.000000pt" height="16.000000pt" viewBox="0 0 16.000000 16.000000"
 preserveAspectRatio="xMidYMid meet">
<metadata>
Created by potrace 1.11, written by Peter Selinger 2001-2013
</metadata>
<g transform="translate(0.000000,16.000000) scale(0.002286,-0.002286)"
fill="#000000" stroke="none">
<path d="M0 6996 c0 -2 430 -700 956 -1552 526 -852 958 -1556 960 -1564 3
-11 -276 -187 -955 -605 l-960 -590 0 -1344 -1 -1343 23 14 c12 8 722 446
1577 973 855 527 1992 1228 2525 1558 534 329 1398 863 1922 1185 l952 587 0
1343 c1 739 -2 1341 -6 1339 -13 -7 -3045 -1878 -3084 -1902 l-35 -23 -595
964 -594 964 -1342 0 c-739 0 -1343 -2 -1343 -4z"/>
</g>
</svg>
